# xmcd CD Database Entry
#
# Track frame offsets:
# 150
# 11475
# 25212
# 39100
# 53500
# 68437
# 82147
# 95862
# 110175
# 125375
# 137575
# 151137
#
# Disc length: 2195 seconds
#
# Revision: 2
# Processed by: cddbd v1.4b42PL1 Copyright (c) Steve Scherf et al.
# Submitted via: tcd 2.0b
#
DISCID=9208910c
DTITLE=Bing Crosby - 36 All-Time Greatest Hits Disc 1
DYEAR=1900
DGENRE=
TTITLE0=Swinging On A Star
TTITLE1=Thanks For The Memory
TTITLE2=The Bells Of St. Mary's
TTITLE3=The Moon Got In My Eyes
TTITLE4=Too-Ra-Loo-Ra-Loo-Ral
TTITLE5=Where The Blue Of The Night (Meets The Gold Of The Day)
TTITLE6=The Whiffenpoof Song
TTITLE7=Yah-Ta-Ta, Yah-Ta-Ta (Talk, Talk, Talk)
TTITLE8=Georgia On My Mind
TTITLE9=MacNamara's Band
TTITLE10=Memories Are Made Of This
TTITLE11=Mona Lisa
EXTD=
EXTT0=
EXTT1=
EXTT2=
EXTT3=
EXTT4=
EXTT5=
EXTT6=
EXTT7=
EXTT8=
EXTT9=
EXTT10=
EXTT11=
PLAYORDER=
